<svg version="1.1" id="Layer_1" xmlns="http://www.w3.org/2000/svg" xmlns:xlink="http://www.w3.org/1999/xlink" x="0px" y="0px"
	 width="100%" viewBox="0 0 608 656" enable-background="new 0 0 608 656" xml:space="preserve">
<path fill="#000000" opacity="1.000000" stroke="none" 
	d="
M269.020203,98.148987 
	C275.041687,86.227150 280.839905,74.608467 286.744934,63.044331 
	C289.426331,57.793262 294.610474,56.137157 299.681458,59.228798 
	C307.034241,63.711567 313.138855,69.117622 312.185486,79.056938 
	C311.816437,82.904182 312.827148,86.701050 314.559052,90.185654 
	C316.268433,93.624924 319.317780,93.740807 321.437256,90.527328 
	C321.889709,89.841347 322.150482,89.026428 322.480957,88.262856 
	C325.877228,80.415207 335.013977,76.944412 342.837677,80.952827 
	C345.843964,82.493080 347.103851,85.985580 348.574585,88.949089 
	C362.934753,117.884758 377.248352,146.843567 391.561707,175.802444 
	C402.557281,198.048676 413.525177,220.308578 424.531403,242.549515 
	C425.603088,244.715164 426.628357,246.585678 424.153076,248.688049 
	C407.646973,262.707153 390.364441,275.681488 372.621094,287.880768 
	C369.883881,286.593292 369.357239,284.122894 368.373840,282.135193 
	C350.946381,246.909714 333.608978,211.639679 316.208313,176.400909 
	C314.990326,173.934326 314.519562,170.005661 311.549530,169.819443 
	C308.057739,169.600494 307.510498,173.797058 306.279327,176.296539 
	C290.240753,208.857956 274.433289,241.533203 258.397308,274.095917 
	C244.274811,302.773041 229.931274,331.341248 215.703857,359.966766 
	C213.406494,364.589111 210.848618,369.126984 209.061646,373.945160 
	C207.308945,378.670959 204.227783,380.973022 199.514282,382.293091 
	C183.302887,386.833191 167.059402,391.039703 150.081131,391.311249 
	C147.744934,391.348633 145.468674,391.096466 143.160812,390.574341 
	C132.575455,388.179321 129.286240,382.250366 133.881943,372.244568 
	C139.786682,359.388702 146.139679,346.736298 152.419205,334.055481 
	C166.904480,304.804047 181.506149,275.610229 195.979828,246.353043 
	C218.057144,201.725784 240.069656,157.066437 262.099091,112.415497 
	C264.382874,107.786545 266.595062,103.122276 269.020203,98.148987 
z"/>
<path fill="#000000" opacity="1.000000" stroke="none" 
	d="
M122.810410,423.321960 
	C144.253510,426.454956 164.243454,421.100281 184.063339,415.355865 
	C248.462402,396.690979 307.008789,365.551117 363.470154,330.164978 
	C399.824799,307.380341 434.390442,282.181915 464.662567,251.548782 
	C476.865234,239.200577 488.346619,226.218933 495.800781,210.256668 
	C497.066498,207.546341 498.402405,204.819153 499.229309,201.961838 
	C503.528046,187.108124 497.212372,177.476120 481.820282,175.322922 
	C462.958679,172.684372 444.740631,176.433563 426.608978,181.003601 
	C424.954163,181.420685 423.337524,182.830902 421.443237,181.502258 
	C421.784149,179.375870 423.654358,179.134354 425.098694,178.538849 
	C447.123718,169.457916 469.298035,160.822052 493.025269,157.167007 
	C505.434174,155.255478 517.855408,154.057968 529.972351,158.760727 
	C539.920105,162.621597 544.387024,170.879013 542.828369,181.380341 
	C540.835388,194.808136 534.404541,206.189423 526.807495,217.024353 
	C508.489075,243.150131 485.478851,264.845490 461.581848,285.686005 
	C423.535004,318.866516 381.926605,347.150024 338.753662,373.015472 
	C292.121857,400.953217 243.553085,425.232086 192.404877,443.962372 
	C169.406921,452.384155 145.927338,459.297241 121.601196,462.779755 
	C109.197693,464.555420 96.766182,465.246552 84.486992,461.498627 
	C71.474052,457.526703 66.117348,448.230713 69.460915,434.949158 
	C72.188690,424.113678 77.697227,414.616760 84.008820,405.569977 
	C94.350800,390.746124 106.903191,377.851776 119.736290,365.220581 
	C120.168541,364.795166 120.819191,364.591614 121.875847,364.000671 
	C121.805779,367.133270 120.058655,368.985687 118.800552,370.984344 
	C113.369225,379.612854 108.580788,388.493958 105.966858,398.473053 
	C102.827919,410.456451 106.767166,418.083496 118.584496,422.047058 
	C119.845566,422.470001 121.131454,422.819000 122.810410,423.321960 
z"/>
<path fill="#000000" opacity="1.000000" stroke="none" 
	d="
M489.223999,370.869934 
	C504.599396,401.459412 519.825500,431.707245 534.980591,461.814056 
	C532.910156,463.818542 530.986572,463.246033 529.254578,463.250916 
	C507.280823,463.312897 485.306488,463.247498 463.333618,463.402252 
	C459.873322,463.426605 457.929962,462.341614 456.371826,459.191589 
	C441.617432,429.362823 426.785217,399.571838 411.785797,369.865723 
	C409.524719,365.387665 410.322235,363.057343 414.561249,360.380646 
	C429.488312,350.954987 443.371918,340.046265 457.327240,329.255096 
	C459.800140,327.342896 462.413849,325.612793 465.772827,323.221802 
	C473.716949,339.349609 481.395844,354.938934 489.223999,370.869934 
z"/>
<path fill="#000000" opacity="1.000000" stroke="none" 
	d="
M451.859894,583.898865 
	C448.252258,587.273560 443.993622,588.815979 439.248688,590.811707 
	C447.690491,602.804321 456.878998,613.655579 465.941956,624.929138 
	C462.967163,627.220398 459.885620,625.797363 457.114716,626.300537 
	C447.331787,628.076721 440.527405,624.761841 435.670044,615.744934 
	C431.987976,608.909912 426.671509,602.969360 422.283356,596.494507 
	C420.233337,593.469666 417.833496,591.863525 414.058960,591.955505 
	C410.244324,592.048523 406.414307,591.657288 402.595978,591.403198 
	C399.343292,591.186829 398.185913,592.632629 398.314331,595.852661 
	C398.645813,604.164246 398.633362,612.490112 399.006592,620.799133 
	C399.203247,625.177307 397.489136,626.502014 393.166138,626.440125 
	C380.482208,626.258484 380.551941,626.424438 380.587891,613.977295 
	C380.654205,591.007141 380.763397,568.036499 380.042053,545.070740 
	C379.836548,538.526917 380.127014,538.516357 386.749817,538.559875 
	C402.069244,538.660522 417.389526,538.618164 432.709381,538.664368 
	C435.036346,538.671387 437.403809,538.598389 439.682281,538.980957 
	C447.991455,540.375977 455.712067,542.650574 458.400787,552.172729 
	C461.675507,563.770020 461.307159,574.573120 451.859894,583.898865 
M416.503113,555.019409 
	C410.901825,555.019409 405.300537,555.019409 399.072662,555.019409 
	C399.072662,560.947327 399.244293,566.390564 399.014221,571.816711 
	C398.852386,575.633301 400.192261,576.873474 403.977692,576.261169 
	C406.227173,575.897339 408.606964,576.382141 410.929169,576.416565 
	C418.714264,576.532043 426.561462,577.632751 434.234436,575.541809 
	C439.737732,574.042114 442.516754,568.935364 441.632019,562.574402 
	C440.979736,557.884766 437.871765,555.466919 431.956512,555.262146 
	C427.141113,555.095581 422.319885,555.098145 416.503113,555.019409 
z"/>
<path fill="#000000" opacity="1.000000" stroke="none" 
	d="
M587.589600,601.283569 
	C584.124817,612.584412 576.647461,619.639343 566.077026,623.047546 
	C550.510925,628.066467 534.556396,628.359253 518.791138,624.173157 
	C502.440857,619.831726 492.486542,607.694397 490.915497,590.790039 
	C490.207214,583.168945 490.167603,575.440491 491.863068,567.893005 
	C495.266113,552.743896 504.626770,543.379700 519.758362,539.870850 
	C533.136475,536.768616 546.600952,537.242554 559.908386,539.923584 
	C579.518494,543.874451 589.547791,556.884338 590.274719,578.182678 
	C590.538025,585.898071 589.937866,593.483826 587.589600,601.283569 
M541.452637,611.706848 
	C543.115356,611.685303 544.782593,611.735291 546.440063,611.630859 
	C561.000244,610.714172 568.934753,604.650635 571.262390,591.729675 
	C572.434998,585.220764 572.358459,578.463562 571.118774,571.886963 
	C569.370422,562.611755 563.968506,556.764587 554.470764,555.030212 
	C545.546875,553.400635 536.542603,553.374878 527.684021,554.885681 
	C517.856934,556.561523 511.831177,562.481812 510.072296,572.669312 
	C509.325714,576.993591 509.061768,581.289734 509.381561,585.563904 
	C510.752502,603.886963 517.511414,608.977295 530.573364,611.088562 
	C533.893799,611.625183 537.184692,611.647705 541.452637,611.706848 
z"/>
<path fill="#000000" opacity="1.000000" stroke="none" 
	d="
M219.988739,554.226379 
	C211.331802,554.230103 203.172531,554.269165 195.013702,554.225769 
	C192.136047,554.210449 189.381271,554.692444 186.738007,555.781921 
	C182.230026,557.640015 179.865448,560.883545 180.370026,565.905701 
	C180.823654,570.420654 184.362000,574.083923 189.254623,574.640991 
	C194.061539,575.188416 198.898026,574.839111 203.699219,574.280762 
	C210.510620,573.488647 217.277634,573.420166 224.071793,574.656677 
	C237.663895,577.130371 244.946854,585.152893 245.299530,598.313782 
	C245.675598,612.347534 238.207977,622.201355 224.932800,625.176880 
	C219.544418,626.384644 214.115860,626.620728 208.582428,626.477234 
	C195.934036,626.149353 183.275192,626.075745 170.622269,626.158325 
	C166.456955,626.185486 164.612961,625.085510 164.758301,620.513062 
	C165.132767,608.732483 162.814957,609.137878 175.705750,610.084778 
	C187.519714,610.952454 199.338928,610.427429 211.142639,611.018005 
	C213.797409,611.150818 216.439728,610.827332 218.997482,609.879028 
	C225.091797,607.619568 227.728195,603.609802 226.854263,597.713440 
	C226.199081,593.292969 222.589798,590.393372 216.510208,590.247375 
	C209.027435,590.067566 201.527817,590.259094 194.045029,590.542603 
	C190.017685,590.695251 186.100067,590.500183 182.184189,589.514465 
	C167.886246,585.915222 161.632385,578.215637 161.679459,564.132324 
	C161.719193,552.245483 169.877991,542.750427 182.604828,539.691223 
	C190.804276,537.720337 199.195587,538.230103 207.452271,538.319153 
	C217.432861,538.426819 227.423889,538.698059 237.407669,538.605164 
	C240.769119,538.573914 242.143250,539.395813 242.245224,542.990662 
	C242.583755,554.925293 242.707199,554.893982 230.975113,554.376770 
	C227.483551,554.222717 223.983002,554.272766 219.988739,554.226379 
z"/>
<path fill="#000000" opacity="1.000000" stroke="none" 
	d="
M107.672150,558.446167 
	C118.455772,580.892029 129.045807,603.019104 140.145111,626.210205 
	C133.014282,626.210205 127.401222,626.274719 121.790924,626.178711 
	C119.524094,626.139893 118.983101,624.061707 118.228218,622.448853 
	C115.901016,617.476624 113.557396,612.507629 111.417770,607.453735 
	C110.260033,604.719055 108.782936,603.250183 105.505287,603.294373 
	C93.352882,603.458008 81.196091,603.394653 69.042229,603.280884 
	C66.165436,603.253967 64.446617,604.283630 63.224064,606.916260 
	C60.912220,611.894531 58.099564,616.646362 55.906418,621.671753 
	C54.330872,625.281982 52.038631,626.725647 48.167599,626.338867 
	C44.072342,625.929688 39.896896,626.783203 35.857128,625.874451 
	C35.016281,623.498352 36.389420,621.812561 37.219887,620.086975 
	C49.271278,595.045959 61.478306,570.078979 73.373863,544.964417 
	C75.606567,540.250610 78.737373,538.052612 83.726921,538.027039 
	C84.392029,538.023682 85.056458,537.949158 85.721855,537.928284 
	C97.544037,537.556458 97.517738,537.569458 102.543617,548.320190 
	C104.092804,551.634033 105.828354,554.860718 107.672150,558.446167 
M96.072769,587.967407 
	C97.646469,587.766357 99.403580,588.568054 101.170593,586.737610 
	C97.448654,576.583252 91.918968,567.126465 86.621857,556.607849 
	C81.941391,567.366943 76.157043,576.621582 72.339401,587.959045 
	C80.614853,587.959045 87.895569,587.959045 96.072769,587.967407 
z"/>
<path fill="#000000" opacity="1.000000" stroke="none" 
	d="
M353.177795,547.909302 
	C353.648254,552.874634 351.783905,554.588562 347.153473,554.369934 
	C340.011444,554.032776 332.827057,554.553955 325.689606,554.171204 
	C320.730835,553.905273 319.060822,555.347900 319.143158,560.541321 
	C319.457031,580.345154 319.138550,600.158813 319.422089,619.963562 
	C319.494965,625.053711 317.927155,626.553589 312.896545,626.433105 
	C300.665955,626.140259 300.684326,626.367493 300.704529,614.296204 
	C300.735168,595.986023 300.636353,577.674988 300.811554,559.366394 
	C300.849335,555.418579 299.546234,554.102966 295.636108,554.222595 
	C288.319519,554.446411 280.986023,554.094604 273.667389,554.283997 
	C269.442352,554.393250 267.657227,552.922791 267.710693,548.531372 
	C267.861237,536.158447 267.141479,538.710205 277.414276,538.644714 
	C301.358337,538.492004 325.303619,538.518799 349.247253,538.327454 
	C352.090210,538.304749 353.282013,539.183655 353.212769,541.947510 
	C353.166901,543.777588 353.193634,545.609497 353.177795,547.909302 
z"/>
<path fill="#000000" opacity="1.000000" stroke="none" 
	d="
M340.794891,281.055908 
	C344.775085,282.348206 348.541901,283.109192 351.793945,285.200928 
	C351.138794,287.767212 348.980713,287.699066 347.393158,288.179932 
	C340.551025,290.252380 333.711090,292.386963 326.756683,294.012817 
	C322.603333,294.983856 320.466309,297.280670 319.542419,301.205475 
	C317.865204,308.330322 315.956421,315.389832 313.432098,322.272766 
	C312.922699,323.661682 312.732452,325.178314 311.505371,326.314148 
	C309.074219,325.861877 309.357758,323.616302 308.871613,322.070007 
	C306.427612,314.296478 304.027344,306.505249 301.847870,298.654663 
	C301.091705,295.931061 299.281219,295.039886 296.934540,294.363159 
	C289.105286,292.105164 281.295105,289.781067 273.479034,287.477448 
	C272.391235,287.156830 271.126678,287.126068 270.465454,285.480927 
	C273.145325,283.194550 276.706085,282.972443 279.880341,281.911835 
	C285.081757,280.173828 290.313385,278.492950 295.612640,277.091919 
	C299.655487,276.023041 301.650299,273.505432 302.688019,269.616119 
	C304.530640,262.710114 306.618530,255.868515 308.671417,249.020248 
	C309.168976,247.360413 309.211334,245.413788 311.314941,244.048187 
	C314.062134,249.129135 316.139740,254.547714 316.818176,259.869995 
	C318.330231,271.732544 324.084351,278.480469 336.092590,279.721771 
	C337.557922,279.873230 338.971588,280.524841 340.794891,281.055908 
z"/>
</svg>